<svg width="24" height="24" viewBox="0 0 24 24" fill="none" xmlns="http://www.w3.org/2000/svg">
<path d="M22.2857 3H1.71429C1.25963 3 0.823593 3.18964 0.502103 3.52721C0.180612 3.86477 0 4.32261 0 4.8V19.2C0 19.6774 0.180612 20.1352 0.502103 20.4728C0.823593 20.8104 1.25963 21 1.71429 21H22.2857C22.7404 21 23.1764 20.8104 23.4979 20.4728C23.8194 20.1352 24 19.6774 24 19.2V4.8C24 4.32261 23.8194 3.86477 23.4979 3.52721C23.1764 3.18964 22.7404 3 22.2857 3ZM20.4 4.8L12 10.902L3.6 4.8H20.4ZM1.71429 19.2V5.619L11.5114 12.738C11.6549 12.8425 11.8254 12.8985 12 12.8985C12.1746 12.8985 12.3451 12.8425 12.4886 12.738L22.2857 5.619V19.2H1.71429Z" fill="white"/>
</svg>
